HIERARCHY
ROOT Hips
{
	OFFSET 0.000000 0.000000 0.000000
	CHANNELS 6 Xposition Yposition Zposition Zrotation Yrotation Xrotation 
	JOINT LHipJoint
	{
		OFFSET 0.000000 0.000000 0.000000
		CHANNELS 3 Zrotation Yrotation Xrotation
		JOINT LeftUpLeg
		{
			OFFSET 1.363060 -1.794630 0.839290
			CHANNELS 3 Zrotation Yrotation Xrotation
			JOINT LeftLeg
			{
				OFFSET 2.448110 -6.726130 0.000000
				CHANNELS 3 Zrotation Yrotation Xrotation
				JOINT LeftFoot
				{
					OFFSET 2.562200 -7.039590 0.000000
					CHANNELS 3 Zrotation Yrotation Xrotation
					JOINT LeftToeBase
					{
						OFFSET 0.157640 -0.433110 2.322550
						CHANNELS 3 Zrotation Yrotation Xrotation
						End Site
						{
							OFFSET 0.000000 0.000000 0.000000
						}
					}
				}
			}
		}
	}
	JOINT RHipJoint
	{
		OFFSET 0.000000 0.000000 0.000000
		CHANNELS 3 Zrotation Yrotation Xrotation
		JOINT RightUpLeg
		{
			OFFSET -1.305520 -1.794630 0.839290
			CHANNELS 3 Zrotation Yrotation Xrotation
			JOINT RightLeg
			{
				OFFSET -2.542530 -6.985550 0.000000
				CHANNELS 3 Zrotation Yrotation Xrotation
				JOINT RightFoot
				{
					OFFSET -2.568260 -7.056230 0.000000
					CHANNELS 3 Zrotation Yrotation Xrotation
					JOINT RightToeBase
					{
						OFFSET -0.164730 -0.452590 2.363150
						CHANNELS 3 Zrotation Yrotation Xrotation
						End Site
						{
							OFFSET 0.000000 0.000000 0.000000
						}
					}
				}
			}
		}
	}
	JOINT LowerBack
	{
		OFFSET 0.000000 0.000000 0.000000
		CHANNELS 3 Zrotation Yrotation Xrotation
		JOINT Spine
		{
			OFFSET 0.028270 2.035590 -0.193380
			CHANNELS 3 Zrotation Yrotation Xrotation
			JOINT Spine1
			{
				OFFSET 0.056720 2.048850 -0.042750
				CHANNELS 3 Zrotation Yrotation Xrotation
				JOINT Neck
				{
					OFFSET 0.000000 0.000000 0.000000
					CHANNELS 3 Zrotation Yrotation Xrotation
					JOINT Neck1
					{
						OFFSET -0.054170 1.746240 0.172020
						CHANNELS 3 Zrotation Yrotation Xrotation
						JOINT Head
						{
							OFFSET 0.104070 1.761360 -0.123970
							CHANNELS 3 Zrotation Yrotation Xrotation
							End Site
							{
								OFFSET 0.000000 0.000000 0.000000
							}
						}
					}
				}
				JOINT LeftShoulder
				{
					OFFSET 0.000000 0.000000 0.000000
					CHANNELS 3 Zrotation Yrotation Xrotation
					JOINT LeftArm
					{
						OFFSET 3.362410 1.200890 -0.311210
						CHANNELS 3 Zrotation Yrotation Xrotation
						JOINT LeftForeArm
						{
							OFFSET 4.983000 -0.000000 -0.000000
							CHANNELS 3 Zrotation Yrotation Xrotation
							JOINT LeftHand
							{
								OFFSET 3.483560 -0.000000 -0.000000
								CHANNELS 3 Zrotation Yrotation Xrotation
								JOINT LeftFingerBase
								{
									OFFSET 0.000000 0.000000 0.000000
									CHANNELS 3 Zrotation Yrotation Xrotation
									JOINT LeftHandIndex1
									{
										OFFSET 0.715260 -0.000000 -0.000000
										CHANNELS 3 Zrotation Yrotation Xrotation
										End Site
										{
											OFFSET 0.000000 0.000000 0.000000
										}
									}
								}
								JOINT LThumb
								{
									OFFSET 0.000000 0.000000 0.000000
									CHANNELS 3 Zrotation Yrotation Xrotation
									End Site
									{
										OFFSET 0.000000 0.000000 0.000000
									}
								}
							}
						}
					}
				}
				JOINT RightShoulder
				{
					OFFSET 0.000000 0.000000 0.000000
					CHANNELS 3 Zrotation Yrotation Xrotation
					JOINT RightArm
					{
						OFFSET -3.136600 1.374050 -0.404650
						CHANNELS 3 Zrotation Yrotation Xrotation
						JOINT RightForeArm
						{
							OFFSET -5.241900 -0.000000 -0.000000
							CHANNELS 3 Zrotation Yrotation Xrotation
							JOINT RightHand
							{
								OFFSET -3.444170 -0.000000 -0.000000
								CHANNELS 3 Zrotation Yrotation Xrotation
								JOINT RightFingerBase
								{
									OFFSET 0.000000 0.000000 0.000000
									CHANNELS 3 Zrotation Yrotation Xrotation
									JOINT RightHandIndex1
									{
										OFFSET -0.622530 -0.000000 -0.000000
										CHANNELS 3 Zrotation Yrotation Xrotation
										End Site
										{
											OFFSET 0.000000 0.000000 0.000000
										}
									}
								}
								JOINT RThumb
								{
									OFFSET 0.000000 0.000000 0.000000
									CHANNELS 3 Zrotation Yrotation Xrotation
									End Site
									{
										OFFSET 0.000000 0.000000 0.000000
									}
								}
							}
						}
					}
				}
			}
		}
	}
}
MOTION
Frames: 6
Frame Time: 0.008333
2.497940 17.269352 1.960596 -5.508561 -71.059709 12.111534 -9.980647 2.094350 5.251997 -8.118831 -11.052168 -13.087039 -1.596842 -0.114024 15.259619 1.445284 7.335385 -9.429229 -0.263900 0.000000 -34.067800 9.641939 -2.213594 -1.255601 7.101128 -14.131073 -9.403362 1.003610 -1.047617 22.936220 -3.061876 -16.766302 -1.742071 -2.606800 0.000000 -66.009499 -1.857190 -1.907939 -4.916272 -0.972947 -1.913670 -3.122394 -5.535896 -1.942246 2.929069 10.987173 -15.465136 -5.726217 -2.117702 -0.191717 0.510039 0.000000 0.000000 0.000000 -2.147538 13.445756 -0.752181 -58.284248 -2.307681 -10.699906 -1.909834 -53.145431 -0.016438 16.136527 -7.980974 -1.171970 -0.213594 0.180940 -0.000000 0.000000 0.000000 0.000000 0.000000 0.000000 0.000000 10.851892 -13.114429 -0.858080 57.344514 -6.226702 -28.750559 1.684206 48.337097 -0.003761 -12.930604 13.037584 -1.527059 0.176716 -0.209403 -0.000000 0.000000 0.000000 0.000000 0.000000 0.000000 0.000000 
2.508063 17.279976 2.005941 -5.996963 -71.231337 12.467500 -10.040902 2.105299 5.183664 -8.123024 -10.700058 -12.690594 -1.599560 -0.136775 14.723321 1.410254 7.188845 -9.215748 -0.230799 0.000000 -34.030600 9.695990 -2.098292 -1.333922 7.080553 -14.201202 -11.718891 0.869197 -1.360709 26.661222 -2.997665 -16.539518 -1.242462 -2.664700 0.000000 -65.482400 -1.572364 -2.016403 -4.817502 -0.905871 -2.042471 -3.092008 -5.518614 -2.068015 2.978930 10.931129 -15.722304 -5.787587 -2.155774 -0.193966 0.494800 0.000000 0.000000 0.000000 -2.162466 13.521975 -0.747850 -58.479584 -1.861901 -11.334365 -1.941541 -52.927535 -0.015675 16.134271 -7.933610 -1.164389 -0.212911 0.177060 -0.000000 0.000000 0.000000 0.000000 0.000000 0.000000 0.000000 11.070278 -13.445589 -0.898157 57.319448 -6.490872 -28.911782 1.709407 48.179498 -0.003115 -12.870211 12.967890 -1.512072 0.178884 -0.208507 -0.000000 0.000000 0.000000 0.000000 0.000000 0.000000 0.000000 
2.518221 17.291539 2.050152 -6.470929 -71.519382 12.915459 -10.104637 2.112073 5.107433 -8.139938 -10.256290 -12.409437 -1.603189 -0.168761 14.138263 1.375354 7.048301 -8.960813 -0.191800 -0.000001 -34.020800 9.742106 -1.964078 -1.349856 7.086489 -14.110467 -14.171077 0.756884 -1.626434 29.990258 -2.900650 -16.091454 -0.789034 -2.672601 -0.000000 -64.907401 -1.281910 -2.127468 -4.771750 -0.836753 -2.175103 -3.073948 -5.502314 -2.198474 3.026077 10.881595 -15.962613 -5.881174 -2.191343 -0.195722 0.472351 0.000000 0.000000 0.000000 -2.158226 13.604340 -0.729795 -58.635697 -1.357041 -12.008719 -1.969062 -52.775305 -0.015006 16.152885 -7.880182 -1.157505 -0.212450 0.173353 -0.000000 0.000000 0.000000 0.000000 0.000000 0.000000 0.000000 11.285978 -13.745394 -0.928298 57.252366 -6.713483 -29.035988 1.729818 48.113502 -0.002566 -12.810869 12.915006 -1.499182 0.180889 -0.208102 -0.000000 0.000000 0.000000 0.000000 0.000000 0.000000 0.000000 
2.528448 17.304197 2.093534 -6.965311 -71.921023 13.493524 -10.173354 2.114063 5.024880 -8.161258 -9.721956 -12.249778 -1.607225 -0.210148 13.504683 1.340508 6.913233 -8.666376 -0.147400 -0.000001 -34.031201 9.770898 -1.811970 -1.304357 7.135219 -13.852719 -16.752827 0.674736 -1.846948 32.864253 -2.776952 -15.431980 -0.445113 -2.617600 0.000000 -64.460100 -0.973203 -2.238630 -4.779384 -0.763070 -2.310082 -3.068591 -5.487087 -2.332045 3.069503 10.837499 -16.185449 -6.007045 -2.224134 -0.196974 0.442749 0.000000 0.000000 0.000000 -2.141478 13.681253 -0.697567 -58.757696 -0.786665 -12.723818 -1.992580 -52.677338 -0.014410 16.199553 -7.819184 -1.151419 -0.212132 0.169620 -0.000000 0.000000 0.000000 0.000000 0.000000 0.000000 0.000000 11.494784 -14.013469 -0.946366 57.141805 -6.887979 -29.128363 1.746006 48.126656 -0.002104 -12.756067 12.878685 -1.488790 0.182743 -0.208137 -0.000000 0.000000 0.000000 0.000000 0.000000 0.000000 0.000000 
2.538933 17.318011 2.136316 -7.510013 -72.431919 14.234510 -10.247445 2.110120 4.938332 -8.183092 -9.109536 -12.216295 -1.611216 -0.260944 12.822991 1.306944 6.791073 -8.335495 -0.098200 0.000000 -34.047900 9.775159 -1.642664 -1.198489 7.235421 -13.423737 -19.462812 0.627545 -2.026161 35.240277 -2.633363 -14.591053 -0.240922 -2.503001 0.000000 -64.291800 -0.637905 -2.347662 -4.840325 -0.683185 -2.445882 -3.075588 -5.472712 -2.467064 3.110670 10.798703 -16.393392 -6.166960 -2.253303 -0.197633 0.405491 0.000000 0.000000 0.000000 -2.113788 13.755675 -0.651219 -58.856385 -0.169030 -13.473437 -2.013205 -52.604604 -0.013886 16.281309 -7.751803 -1.146833 -0.211922 0.165779 -0.000000 0.000000 0.000000 0.000000 0.000000 0.000000 0.000000 11.693632 -14.252938 -0.951517 56.988129 -7.004657 -29.191710 1.758319 48.206572 -0.001741 -12.709677 12.855264 -1.480997 0.184475 -0.208577 -0.000000 0.000000 0.000000 0.000000 0.000000 0.000000 0.000000 
2.550001 17.332888 2.178685 -8.135407 -73.045434 15.171174 -10.327128 2.098701 4.849017 -8.203816 -8.434805 -12.311967 -1.614950 -0.320725 12.096643 1.276182 6.690550 -7.973714 -0.044700 0.000000 -34.053800 9.749012 -1.457258 -1.032245 7.389453 -12.816089 -22.296627 0.617547 -2.167811 37.081513 -2.477323 -13.615593 -0.169771 -2.346599 -0.000000 -64.500900 -0.269202 -2.452238 -4.953341 -0.595877 -2.580792 -3.094881 -5.458970 -2.601699 3.149218 10.764437 -16.587646 -6.360711 -2.278245 -0.197652 0.360557 0.000000 0.000000 0.000000 -2.074827 13.819276 -0.590807 -58.942078 0.493044 -14.255080 -2.031220 -52.539917 -0.013432 16.402526 -7.675029 -1.143549 -0.211745 0.161736 -0.000000 0.000000 0.000000 0.000000 0.000000 0.000000 0.000000 11.877942 -14.465546 -0.942270 56.794928 -7.057848 -29.230578 1.766943 48.344574 -0.001495 -12.675161 12.839369 -1.475503 0.186117 -0.209396 -0.000000 0.000000 0.000000 0.000000 0.000000 0.000000 0.000000 
